<?xml version="1.0" encoding="utf-8"?>
<svg xmlns="http://www.w3.org/2000/svg" viewBox="0 0 500 500" xmlns:bx="https://boxy-svg.com" width="500px" height="500px"><defs><bx:export><bx:file format="svg" href="#object-0"/><bx:file format="svg" path="ez.svg"/></bx:export></defs><g style="" transform="matrix(1, 0, 0, 0.98478, 0, -15.272309)" id="object-0"><path style="fill: none; stroke: rgb(0, 0, 0); stroke-miterlimit: 8.12; paint-order: fill; stroke-width: 18px; stroke-linecap: round; stroke-linejoin: round;" d="M 42.843 241.551 C 46.113 252.984 53.153 254.518 65.595 259.417 C 72.511 262.141 73.355 261.397 79.152 262.864 C 88.538 265.238 88.711 264.465 96.892 265.057 C 105.455 265.677 109.724 265.085 117.377 264.744 C 133.413 264.028 146.246 264.389 158.672 262.236 C 163.415 261.414 169.223 260.463 177.403 257.848 C 181.002 256.698 184.189 255.734 192.171 253.147 C 198.544 251.079 198.718 251.154 206.624 248.446 C 213.922 245.947 214.886 242.236 224.696 234.968 C 228.072 232.466 224.458 233.867 230.907 228.698 C 237.337 223.544 248.772 194.463 247.717 187.637 C 247.261 184.697 247.396 182.246 247.467 179.17 C 247.67 170.449 244.493 155.168 240.068 148.454 C 235.111 140.937 226.637 137.592 222.225 130.899 C 221.866 130.355 219.118 129.455 217.957 128.707 C 212.005 124.868 188.759 124.167 179.423 125.885 C 169.51 127.71 158.881 129.93 148.65 133.408 C 136.373 137.582 126.426 141.127 115.841 146.795 C 107.955 151.017 100.952 156.606 93.49 162.171 C 89.465 165.175 83.687 170.329 79.81 173.53 C 75.437 177.143 70.132 182.851 66.121 187.948 C 64.106 190.511 62.229 193.364 58.514 199.233 C 49.794 213.02 51.088 212.69 48.56 217.413 C 46.351 221.539 45.87 223.62 44.729 226.817 C 40.436 238.846 38.467 243.451 35.346 252.52 C 20.835 294.664 21.486 328.491 37.943 353.453 C 49.629 371.176 69.456 377.975 94.598 378.53 C 100.195 378.654 107.004 378.941 113.921 378.844 C 121.758 378.733 140.107 379.194 147.891 377.592 C 161.846 374.718 158.024 376.218 162.85 375.083 C 175.39 372.135 175.499 373.8 181.894 371.635 C 192.219 368.14 197.251 367.19 203.677 364.741 C 219.189 358.826 215.934 360.506 222.027 355.961 C 223.633 354.764 224.299 351.572 226.658 351.572"/><path style="fill: none; stroke: rgb(0, 0, 0); stroke-width: 18px; stroke-linecap: round; stroke-linejoin: round;" d="M 216.563 127.655 C 223.649 132.659 224.645 132.734 227.643 134.09 C 234.751 137.301 233.978 137.274 237.445 138.599 C 242.3 140.454 247.015 140.055 251.999 139.926 C 258.322 139.766 265.279 139.557 271.886 139.291 C 280.456 138.944 286.405 138.18 293.148 138.18 C 303.828 138.18 316.121 137.235 327.298 136.593 C 332.094 136.317 344.063 135.846 348.169 135.515 C 355.733 134.903 360.14 135.109 364 134.974 C 370.571 134.745 369.896 134.974 371.013 134.974 C 376.169 134.974 380.537 134.054 391.947 134.217 C 394.165 134.249 399.547 134.272 404.293 133.896 C 415.781 132.983 429.554 132.354 435.965 131.199 C 446.756 129.254 447.948 130.031 458.456 126.992 C 463.264 125.602 474.191 126.15 474.848 126.794 C 475.842 127.763 471.739 132.184 468.67 134.974 C 456.863 145.711 448.387 154.611 439.149 163.031 C 430.715 170.718 421.686 179.426 412.887 187.85 C 395.374 204.617 387.143 214.447 362.719 235.763 C 353.305 243.978 337.295 257.992 327.278 266.623 C 315.879 276.445 307.252 282.393 293.722 293.418 C 282.846 302.281 269.385 311.561 257.231 320.838 C 250.192 326.21 246.514 329.948 240.257 335.192 C 238.412 336.737 236.161 338.43 230.456 343.39 C 223.422 349.505 223.123 350.558 214.035 357.627 C 213.681 357.902 202.855 365.358 202.903 365.117 C 203.075 364.259 222.657 360.439 224.131 360.48 C 235.106 360.78 236.046 360.486 239.423 360.752 C 251.274 361.686 256.606 363.212 265.626 364.766 C 268.671 365.29 272.873 367.189 277.494 367.949 C 282.526 368.775 287.487 369.238 293.05 369.446 C 305.593 369.917 315.741 370.046 328.655 370.046 C 349.997 370.046 374.787 368.478 395.669 364.107 C 405.15 362.122 414.645 360.981 422.79 356.727 C 424.451 355.858 427.285 354.468 428.861 353.291 C 433.867 349.558 438.772 346.822 443.035 343.238 C 451.783 335.879 458.924 329.855 462.82 318.42"/></g></svg>